<svg xmlns="http://www.w3.org/2000/svg" width="24" height="25" aria-label="Copy to clipboard" viewBox="0 0 24 25"><path d="M18 20h2v3c0 1-1 2-2 2H2c-.998 0-2-1-2-2V5c0-.911.755-1.667 1.667-1.667h5A3.323 3.323 0 0 1 10 0a3.323 3.323 0 0 1 3.333 3.333h5A1.68 1.68 0 0 1 20 5v8.333h-2V9H2v14h16v-3zM3 7h14c0-.911-.793-1.667-1.75-1.667H13.5c-.957 0-1.75-.755-1.75-1.666C11.75 2.755 10.957 2 10 2s-1.75.755-1.75 1.667c0 .911-.793 1.666-1.75 1.666H4.75C3.793 5.333 3 6.09 3 7z"/><path d="M4 19h6v2H4zm8-8H4v2h8zm-8 6h4v-2H4zm11-2v-3l-4.5 4.5L15 21v-3l8.027-.032L23 15z"/></svg>